<?xml version="1.0" encoding="UTF-8" standalone="no"?>
<!DOCTYPE svg PUBLIC "-//W3C//DTD SVG 1.1//EN"
 "http://www.w3.org/Graphics/SVG/1.1/DTD/svg11.dtd">
<!-- Generated by graphviz version 2.38.0 (20140413.2041)
 -->
<!-- Title: include/MFixedPoint/Config.hpp Pages: 1 -->
<svg width="448pt" height="229pt"
 viewBox="0.00 0.00 448.00 229.00" xmlns="http://www.w3.org/2000/svg" xmlns:xlink="http://www.w3.org/1999/xlink">
<g id="graph0" class="graph" transform="scale(1 1) rotate(0) translate(4 225)">
<title>include/MFixedPoint/Config.hpp</title>
<polygon fill="white" stroke="none" points="-4,4 -4,-225 444,-225 444,4 -4,4"/>
<!-- Node1 -->
<g id="node1" class="node"><title>Node1</title>
<polygon fill="#bfbfbf" stroke="black" points="171,-190.5 171,-220.5 276,-220.5 276,-190.5 171,-190.5"/>
<text text-anchor="start" x="179" y="-208.5" font-family="Helvetica,sans-Serif" font-size="10.00">include/MFixedPoint</text>
<text text-anchor="middle" x="223.5" y="-197.5" font-family="Helvetica,sans-Serif" font-size="10.00">/Config.hpp</text>
</g>
<!-- Node2 -->
<g id="node2" class="node"><title>Node2</title>
<g id="a_node2"><a xlink:href="Fp32f_8hpp.html" target="_top" xlink:title="Fast 32&#45;bit fixed point library. ">
<polygon fill="white" stroke="black" points="0,-56.5 0,-86.5 105,-86.5 105,-56.5 0,-56.5"/>
<text text-anchor="start" x="8" y="-74.5" font-family="Helvetica,sans-Serif" font-size="10.00">include/MFixedPoint</text>
<text text-anchor="middle" x="52.5" y="-63.5" font-family="Helvetica,sans-Serif" font-size="10.00">/Fp32f.hpp</text>
</a>
</g>
</g>
<!-- Node1&#45;&gt;Node2 -->
<g id="edge1" class="edge"><title>Node1&#45;&gt;Node2</title>
<path fill="none" stroke="midnightblue" d="M176.699,-186.204C158.489,-177.876 138.065,-166.962 121.5,-154 96.3874,-134.349 73.8721,-104.314 61.8003,-86.7186"/>
<polygon fill="midnightblue" stroke="midnightblue" points="175.428,-189.468 185.988,-190.32 178.264,-183.069 175.428,-189.468"/>
</g>
<!-- Node4 -->
<g id="node4" class="node"><title>Node4</title>
<g id="a_node4"><a xlink:href="Port_8hpp.html" target="_top" xlink:title="Port specific functions. ">
<polygon fill="white" stroke="black" points="131,-123.5 131,-153.5 236,-153.5 236,-123.5 131,-123.5"/>
<text text-anchor="start" x="139" y="-141.5" font-family="Helvetica,sans-Serif" font-size="10.00">include/MFixedPoint</text>
<text text-anchor="middle" x="183.5" y="-130.5" font-family="Helvetica,sans-Serif" font-size="10.00">/Port.hpp</text>
</a>
</g>
</g>
<!-- Node1&#45;&gt;Node4 -->
<g id="edge3" class="edge"><title>Node1&#45;&gt;Node4</title>
<path fill="none" stroke="midnightblue" d="M209.572,-181.867C203.783,-172.459 197.244,-161.833 192.162,-153.577"/>
<polygon fill="midnightblue" stroke="midnightblue" points="206.599,-183.714 214.821,-190.396 212.56,-180.045 206.599,-183.714"/>
</g>
<!-- Node6 -->
<g id="node6" class="node"><title>Node6</title>
<g id="a_node6"><a xlink:href="Fp32s_8hpp.html" target="_top" xlink:title="A slower, more powerful 32&#45;bit fixed point library. ">
<polygon fill="white" stroke="black" points="212,-56.5 212,-86.5 317,-86.5 317,-56.5 212,-56.5"/>
<text text-anchor="start" x="220" y="-74.5" font-family="Helvetica,sans-Serif" font-size="10.00">include/MFixedPoint</text>
<text text-anchor="middle" x="264.5" y="-63.5" font-family="Helvetica,sans-Serif" font-size="10.00">/Fp32s.hpp</text>
</a>
</g>
</g>
<!-- Node1&#45;&gt;Node6 -->
<g id="edge8" class="edge"><title>Node1&#45;&gt;Node6</title>
<path fill="none" stroke="midnightblue" d="M234.177,-180.94C237.747,-172.543 241.561,-162.948 244.5,-154 252.138,-130.746 258.364,-102.914 261.743,-86.5269"/>
<polygon fill="midnightblue" stroke="midnightblue" points="230.955,-179.572 230.166,-190.138 237.372,-182.371 230.955,-179.572"/>
</g>
<!-- Node7 -->
<g id="node7" class="node"><title>Node7</title>
<g id="a_node7"><a xlink:href="Fp64s_8hpp.html" target="_top" xlink:title="A slower, more powerful 64&#45;bit fixed point library (than Fp64f). ">
<polygon fill="white" stroke="black" points="335,-56.5 335,-86.5 440,-86.5 440,-56.5 335,-56.5"/>
<text text-anchor="start" x="343" y="-74.5" font-family="Helvetica,sans-Serif" font-size="10.00">include/MFixedPoint</text>
<text text-anchor="middle" x="387.5" y="-63.5" font-family="Helvetica,sans-Serif" font-size="10.00">/Fp64s.hpp</text>
</a>
</g>
</g>
<!-- Node1&#45;&gt;Node7 -->
<g id="edge9" class="edge"><title>Node1&#45;&gt;Node7</title>
<path fill="none" stroke="midnightblue" d="M249.046,-183.938C282.716,-156.838 341.061,-109.878 370.075,-86.5247"/>
<polygon fill="midnightblue" stroke="midnightblue" points="246.646,-181.377 241.051,-190.374 251.036,-186.83 246.646,-181.377"/>
</g>
<!-- Node3 -->
<g id="node3" class="node"><title>Node3</title>
<g id="a_node3"><a xlink:href="Fp32f_8cpp.html" target="_top" xlink:title="Fast 32&#45;bit fixed point library. ">
<polygon fill="white" stroke="black" points="14,-0.5 14,-19.5 91,-19.5 91,-0.5 14,-0.5"/>
<text text-anchor="middle" x="52.5" y="-7.5" font-family="Helvetica,sans-Serif" font-size="10.00">src/Fp32f.cpp</text>
</a>
</g>
</g>
<!-- Node2&#45;&gt;Node3 -->
<g id="edge2" class="edge"><title>Node2&#45;&gt;Node3</title>
<path fill="none" stroke="midnightblue" d="M52.5,-46.2892C52.5,-36.857 52.5,-26.6548 52.5,-19.6578"/>
<polygon fill="midnightblue" stroke="midnightblue" points="49.0001,-46.3993 52.5,-56.3993 56.0001,-46.3994 49.0001,-46.3993"/>
</g>
<!-- Node4&#45;&gt;Node2 -->
<g id="edge5" class="edge"><title>Node4&#45;&gt;Node2</title>
<path fill="none" stroke="midnightblue" d="M145.92,-118.853C125.207,-108.576 99.9122,-96.0252 80.8696,-86.5765"/>
<polygon fill="midnightblue" stroke="midnightblue" points="144.561,-122.086 155.075,-123.396 147.673,-115.816 144.561,-122.086"/>
</g>
<!-- Node5 -->
<g id="node5" class="node"><title>Node5</title>
<g id="a_node5"><a xlink:href="Port_8cpp.html" target="_top" xlink:title="Port specific functions. ">
<polygon fill="white" stroke="black" points="123.5,-62 123.5,-81 193.5,-81 193.5,-62 123.5,-62"/>
<text text-anchor="middle" x="158.5" y="-69" font-family="Helvetica,sans-Serif" font-size="10.00">src/Port.cpp</text>
</a>
</g>
</g>
<!-- Node4&#45;&gt;Node5 -->
<g id="edge4" class="edge"><title>Node4&#45;&gt;Node5</title>
<path fill="none" stroke="midnightblue" d="M174.439,-113.942C170.054,-102.54 165.056,-89.5454 161.844,-81.1945"/>
<polygon fill="midnightblue" stroke="midnightblue" points="171.219,-115.319 178.075,-123.396 177.752,-112.806 171.219,-115.319"/>
</g>
<!-- Node4&#45;&gt;Node6 -->
<g id="edge6" class="edge"><title>Node4&#45;&gt;Node6</title>
<path fill="none" stroke="midnightblue" d="M209.192,-116.883C221.501,-107.005 235.927,-95.4293 246.959,-86.5765"/>
<polygon fill="midnightblue" stroke="midnightblue" points="206.685,-114.407 201.076,-123.396 211.066,-119.867 206.685,-114.407"/>
</g>
<!-- Node4&#45;&gt;Node7 -->
<g id="edge7" class="edge"><title>Node4&#45;&gt;Node7</title>
<path fill="none" stroke="midnightblue" d="M237.455,-120.308C270.457,-109.793 312.155,-96.5068 343.213,-86.6109"/>
<polygon fill="midnightblue" stroke="midnightblue" points="235.979,-117.105 227.514,-123.476 238.104,-123.775 235.979,-117.105"/>
</g>
</g>
</svg>
