<?xml version="1.0" encoding="UTF-8" standalone="no"?>
<!DOCTYPE svg PUBLIC "-//W3C//DTD SVG 1.1//EN"
 "http://www.w3.org/Graphics/SVG/1.1/DTD/svg11.dtd">
<!-- Generated by graphviz version 2.38.0 (20140413.2041)
 -->
<!-- Title: src/Fp32f.cpp Pages: 1 -->
<svg width="157pt" height="196pt"
 viewBox="0.00 0.00 156.50 196.00" xmlns="http://www.w3.org/2000/svg" xmlns:xlink="http://www.w3.org/1999/xlink">
<g id="graph0" class="graph" transform="scale(1 1) rotate(0) translate(4 192)">
<title>src/Fp32f.cpp</title>
<polygon fill="white" stroke="none" points="-4,4 -4,-192 152.5,-192 152.5,4 -4,4"/>
<!-- Node0 -->
<g id="node1" class="node"><title>Node0</title>
<polygon fill="#bfbfbf" stroke="black" points="32,-168.5 32,-187.5 109,-187.5 109,-168.5 32,-168.5"/>
<text text-anchor="middle" x="70.5" y="-175.5" font-family="Helvetica,sans-Serif" font-size="10.00">src/Fp32f.cpp</text>
</g>
<!-- Node1 -->
<g id="node2" class="node"><title>Node1</title>
<g id="a_node2"><a xlink:href="Fp32f_8hpp.html" target="_top" xlink:title="Fast 32&#45;bit fixed point library. ">
<polygon fill="white" stroke="black" points="11.5,-112.5 11.5,-131.5 129.5,-131.5 129.5,-112.5 11.5,-112.5"/>
<text text-anchor="middle" x="70.5" y="-119.5" font-family="Helvetica,sans-Serif" font-size="10.00">MFixedPoint/Fp32f.hpp</text>
</a>
</g>
</g>
<!-- Node0&#45;&gt;Node1 -->
<g id="edge1" class="edge"><title>Node0&#45;&gt;Node1</title>
<path fill="none" stroke="midnightblue" d="M70.5,-168.083C70.5,-161.006 70.5,-150.861 70.5,-141.986"/>
<polygon fill="midnightblue" stroke="midnightblue" points="74.0001,-141.751 70.5,-131.751 67.0001,-141.751 74.0001,-141.751"/>
</g>
<!-- Node2 -->
<g id="node3" class="node"><title>Node2</title>
<polygon fill="white" stroke="#bfbfbf" points="0,-0.5 0,-19.5 49,-19.5 49,-0.5 0,-0.5"/>
<text text-anchor="middle" x="24.5" y="-7.5" font-family="Helvetica,sans-Serif" font-size="10.00">stdint.h</text>
</g>
<!-- Node1&#45;&gt;Node2 -->
<g id="edge2" class="edge"><title>Node1&#45;&gt;Node2</title>
<path fill="none" stroke="midnightblue" d="M61.1841,-112.307C52.7699,-103.875 40.7742,-90.291 34.5,-76 28.1102,-61.4456 25.7128,-43.4979 24.8552,-30.152"/>
<polygon fill="midnightblue" stroke="midnightblue" points="28.3382,-29.6595 24.4363,-19.8093 21.344,-29.9428 28.3382,-29.6595"/>
</g>
<!-- Node3 -->
<g id="node4" class="node"><title>Node3</title>
<g id="a_node4"><a xlink:href="Config_8hpp.html" target="_top" xlink:title="Port specific functions. ">
<polygon fill="white" stroke="black" points="84.5,-0.5 84.5,-19.5 148.5,-19.5 148.5,-0.5 84.5,-0.5"/>
<text text-anchor="middle" x="116.5" y="-7.5" font-family="Helvetica,sans-Serif" font-size="10.00">Config.hpp</text>
</a>
</g>
</g>
<!-- Node1&#45;&gt;Node3 -->
<g id="edge3" class="edge"><title>Node1&#45;&gt;Node3</title>
<path fill="none" stroke="midnightblue" d="M79.504,-112.235C87.647,-103.752 99.2841,-90.1334 105.5,-76 111.915,-61.4145 114.606,-43.4695 115.726,-30.1326"/>
<polygon fill="midnightblue" stroke="midnightblue" points="119.241,-29.9943 116.36,-19.7987 112.254,-29.5655 119.241,-29.9943"/>
</g>
<!-- Node4 -->
<g id="node5" class="node"><title>Node4</title>
<g id="a_node5"><a xlink:href="Port_8hpp.html" target="_top" xlink:title="Port specific functions. ">
<polygon fill="white" stroke="black" points="44,-56.5 44,-75.5 97,-75.5 97,-56.5 44,-56.5"/>
<text text-anchor="middle" x="70.5" y="-63.5" font-family="Helvetica,sans-Serif" font-size="10.00">Port.hpp</text>
</a>
</g>
</g>
<!-- Node1&#45;&gt;Node4 -->
<g id="edge4" class="edge"><title>Node1&#45;&gt;Node4</title>
<path fill="none" stroke="midnightblue" d="M70.5,-112.083C70.5,-105.006 70.5,-94.8611 70.5,-85.9865"/>
<polygon fill="midnightblue" stroke="midnightblue" points="74.0001,-85.751 70.5,-75.7511 67.0001,-85.7511 74.0001,-85.751"/>
</g>
<!-- Node4&#45;&gt;Node2 -->
<g id="edge6" class="edge"><title>Node4&#45;&gt;Node2</title>
<path fill="none" stroke="midnightblue" d="M62.904,-56.083C56.2725,-48.2982 46.479,-36.8015 38.4419,-27.3665"/>
<polygon fill="midnightblue" stroke="midnightblue" points="41.1037,-25.0939 31.9546,-19.7511 35.775,-29.6332 41.1037,-25.0939"/>
</g>
<!-- Node4&#45;&gt;Node3 -->
<g id="edge5" class="edge"><title>Node4&#45;&gt;Node3</title>
<path fill="none" stroke="midnightblue" d="M78.096,-56.083C84.7275,-48.2982 94.521,-36.8015 102.558,-27.3665"/>
<polygon fill="midnightblue" stroke="midnightblue" points="105.225,-29.6332 109.045,-19.7511 99.8963,-25.0939 105.225,-29.6332"/>
</g>
</g>
</svg>
