<?xml version="1.0" encoding="UTF-8" standalone="no"?>
<!DOCTYPE svg PUBLIC "-//W3C//DTD SVG 1.1//EN"
 "http://www.w3.org/Graphics/SVG/1.1/DTD/svg11.dtd">
<!-- Generated by graphviz version 2.38.0 (20140413.2041)
 -->
<!-- Title: include/MFixedPoint/Fp32s.hpp Pages: 1 -->
<svg width="157pt" height="151pt"
 viewBox="0.00 0.00 156.50 151.00" xmlns="http://www.w3.org/2000/svg" xmlns:xlink="http://www.w3.org/1999/xlink">
<g id="graph0" class="graph" transform="scale(1 1) rotate(0) translate(4 147)">
<title>include/MFixedPoint/Fp32s.hpp</title>
<polygon fill="white" stroke="none" points="-4,4 -4,-147 152.5,-147 152.5,4 -4,4"/>
<!-- Node0 -->
<g id="node1" class="node"><title>Node0</title>
<polygon fill="#bfbfbf" stroke="black" points="18,-112.5 18,-142.5 123,-142.5 123,-112.5 18,-112.5"/>
<text text-anchor="start" x="26" y="-130.5" font-family="Helvetica,sans-Serif" font-size="10.00">include/MFixedPoint</text>
<text text-anchor="middle" x="70.5" y="-119.5" font-family="Helvetica,sans-Serif" font-size="10.00">/Fp32s.hpp</text>
</g>
<!-- Node1 -->
<g id="node2" class="node"><title>Node1</title>
<polygon fill="white" stroke="#bfbfbf" points="0,-0.5 0,-19.5 49,-19.5 49,-0.5 0,-0.5"/>
<text text-anchor="middle" x="24.5" y="-7.5" font-family="Helvetica,sans-Serif" font-size="10.00">stdint.h</text>
</g>
<!-- Node0&#45;&gt;Node1 -->
<g id="edge1" class="edge"><title>Node0&#45;&gt;Node1</title>
<path fill="none" stroke="midnightblue" d="M57.4655,-112.131C49.5405,-102.576 39.9316,-89.3664 34.5,-76 28.5159,-61.2741 26.083,-43.3415 25.1085,-30.0449"/>
<polygon fill="midnightblue" stroke="midnightblue" points="28.588,-29.5561 24.5751,-19.7507 21.5974,-29.9185 28.588,-29.5561"/>
</g>
<!-- Node2 -->
<g id="node3" class="node"><title>Node2</title>
<g id="a_node3"><a xlink:href="Config_8hpp.html" target="_top" xlink:title="Port specific functions. ">
<polygon fill="white" stroke="black" points="84.5,-0.5 84.5,-19.5 148.5,-19.5 148.5,-0.5 84.5,-0.5"/>
<text text-anchor="middle" x="116.5" y="-7.5" font-family="Helvetica,sans-Serif" font-size="10.00">Config.hpp</text>
</a>
</g>
</g>
<!-- Node0&#45;&gt;Node2 -->
<g id="edge2" class="edge"><title>Node0&#45;&gt;Node2</title>
<path fill="none" stroke="midnightblue" d="M82.7536,-112.47C90.4909,-102.848 100.027,-89.4353 105.5,-76 111.511,-61.2437 114.238,-43.3137 115.474,-30.0259"/>
<polygon fill="midnightblue" stroke="midnightblue" points="118.987,-29.9679 116.222,-19.7403 112.006,-29.46 118.987,-29.9679"/>
</g>
<!-- Node3 -->
<g id="node4" class="node"><title>Node3</title>
<g id="a_node4"><a xlink:href="Port_8hpp.html" target="_top" xlink:title="Port specific functions. ">
<polygon fill="white" stroke="black" points="44,-56.5 44,-75.5 97,-75.5 97,-56.5 44,-56.5"/>
<text text-anchor="middle" x="70.5" y="-63.5" font-family="Helvetica,sans-Serif" font-size="10.00">Port.hpp</text>
</a>
</g>
</g>
<!-- Node0&#45;&gt;Node3 -->
<g id="edge3" class="edge"><title>Node0&#45;&gt;Node3</title>
<path fill="none" stroke="midnightblue" d="M70.5,-112.399C70.5,-104.466 70.5,-94.458 70.5,-85.8583"/>
<polygon fill="midnightblue" stroke="midnightblue" points="74.0001,-85.6577 70.5,-75.6578 67.0001,-85.6578 74.0001,-85.6577"/>
</g>
<!-- Node3&#45;&gt;Node1 -->
<g id="edge5" class="edge"><title>Node3&#45;&gt;Node1</title>
<path fill="none" stroke="midnightblue" d="M62.904,-56.083C56.2725,-48.2982 46.479,-36.8015 38.4419,-27.3665"/>
<polygon fill="midnightblue" stroke="midnightblue" points="41.1037,-25.0939 31.9546,-19.7511 35.775,-29.6332 41.1037,-25.0939"/>
</g>
<!-- Node3&#45;&gt;Node2 -->
<g id="edge4" class="edge"><title>Node3&#45;&gt;Node2</title>
<path fill="none" stroke="midnightblue" d="M78.096,-56.083C84.7275,-48.2982 94.521,-36.8015 102.558,-27.3665"/>
<polygon fill="midnightblue" stroke="midnightblue" points="105.225,-29.6332 109.045,-19.7511 99.8963,-25.0939 105.225,-29.6332"/>
</g>
</g>
</svg>
