<?xml version="1.0" encoding="UTF-8" standalone="no"?>
<!DOCTYPE svg PUBLIC "-//W3C//DTD SVG 1.1//EN"
 "http://www.w3.org/Graphics/SVG/1.1/DTD/svg11.dtd">
<!-- Generated by graphviz version 2.38.0 (20140413.2041)
 -->
<!-- Title: mn::MFixedPoint::fast_div16 Pages: 1 -->
<svg width="466pt" height="78pt"
 viewBox="0.00 0.00 466.00 77.50" xmlns="http://www.w3.org/2000/svg" xmlns:xlink="http://www.w3.org/1999/xlink">
<g id="graph0" class="graph" transform="scale(1 1) rotate(0) translate(4 73.5)">
<title>mn::MFixedPoint::fast_div16</title>
<polygon fill="white" stroke="none" points="-4,4 -4,-73.5 462,-73.5 462,4 -4,4"/>
<!-- Node19 -->
<g id="node1" class="node"><title>Node19</title>
<polygon fill="#bfbfbf" stroke="black" points="0,-17 0,-47 113,-47 113,-17 0,-17"/>
<text text-anchor="start" x="8" y="-35" font-family="Helvetica,sans-Serif" font-size="10.00">mn::MFixedPoint::fast</text>
<text text-anchor="middle" x="56.5" y="-24" font-family="Helvetica,sans-Serif" font-size="10.00">_div16</text>
</g>
<!-- Node20 -->
<g id="node2" class="node"><title>Node20</title>
<g id="a_node2"><a xlink:href="namespacemn_1_1MFixedPoint.html#a67dbcc8f8829616f0928b35320c51d04" target="_top" xlink:title="Calculates squareroot. ">
<polygon fill="white" stroke="black" points="149,-22.5 149,-41.5 283,-41.5 283,-22.5 149,-22.5"/>
<text text-anchor="middle" x="216" y="-29.5" font-family="Helvetica,sans-Serif" font-size="10.00">mn::MFixedPoint::fixsqrt16</text>
</a>
</g>
</g>
<!-- Node19&#45;&gt;Node20 -->
<g id="edge1" class="edge"><title>Node19&#45;&gt;Node20</title>
<path fill="none" stroke="midnightblue" d="M123.247,-32C131.732,-32 140.423,-32 148.913,-32"/>
<polygon fill="midnightblue" stroke="midnightblue" points="123.029,-28.5001 113.029,-32 123.029,-35.5001 123.029,-28.5001"/>
</g>
<!-- Node21 -->
<g id="node3" class="node"><title>Node21</title>
<g id="a_node3"><a xlink:href="namespacemn_1_1MFixedPoint.html#ab9447d89d1eaa05037d45ea17e228aae" target="_top" xlink:title="Converts from double to a raw fixed&#45;point number. ">
<polygon fill="white" stroke="black" points="319,-39 319,-69 458,-69 458,-39 319,-39"/>
<text text-anchor="start" x="327" y="-57" font-family="Helvetica,sans-Serif" font-size="10.00">mn::MFixedPoint::DoubleTo</text>
<text text-anchor="middle" x="388.5" y="-46" font-family="Helvetica,sans-Serif" font-size="10.00">RawFix32</text>
</a>
</g>
</g>
<!-- Node20&#45;&gt;Node21 -->
<g id="edge2" class="edge"><title>Node20&#45;&gt;Node21</title>
<path fill="none" stroke="midnightblue" d="M293.563,-41.8791C301.953,-42.9616 310.456,-44.0588 318.742,-45.128"/>
<polygon fill="midnightblue" stroke="midnightblue" points="293.774,-38.3773 283.408,-40.5688 292.878,-45.3198 293.774,-38.3773"/>
</g>
<!-- Node22 -->
<g id="node4" class="node"><title>Node22</title>
<g id="a_node4"><a xlink:href="namespacemn_1_1MFixedPoint.html#a3acec45599038730e03e2b4167300dad" target="_top" xlink:title="mn::MFixedPoint::sqrt">
<polygon fill="white" stroke="black" points="332,-0.5 332,-19.5 445,-19.5 445,-0.5 332,-0.5"/>
<text text-anchor="middle" x="388.5" y="-7.5" font-family="Helvetica,sans-Serif" font-size="10.00">mn::MFixedPoint::sqrt</text>
</a>
</g>
</g>
<!-- Node20&#45;&gt;Node22 -->
<g id="edge3" class="edge"><title>Node20&#45;&gt;Node22</title>
<path fill="none" stroke="midnightblue" d="M293.628,-22.1126C306.469,-20.4556 319.575,-18.7645 331.762,-17.192"/>
<polygon fill="midnightblue" stroke="midnightblue" points="292.878,-18.6802 283.408,-23.4312 293.774,-25.6227 292.878,-18.6802"/>
</g>
</g>
</svg>
