<?xml version="1.0" encoding="UTF-8" standalone="no"?>
<!DOCTYPE svg PUBLIC "-//W3C//DTD SVG 1.1//EN"
 "http://www.w3.org/Graphics/SVG/1.1/DTD/svg11.dtd">
<!-- Generated by graphviz version 2.38.0 (20140413.2041)
 -->
<!-- Title: mn::MFixedPoint::fixrsqrt16 Pages: 1 -->
<svg width="320pt" height="78pt"
 viewBox="0.00 0.00 320.00 77.50" xmlns="http://www.w3.org/2000/svg" xmlns:xlink="http://www.w3.org/1999/xlink">
<g id="graph0" class="graph" transform="scale(1 1) rotate(0) translate(4 73.5)">
<title>mn::MFixedPoint::fixrsqrt16</title>
<polygon fill="white" stroke="none" points="-4,4 -4,-73.5 316,-73.5 316,4 -4,4"/>
<!-- Node44 -->
<g id="node1" class="node"><title>Node44</title>
<polygon fill="#bfbfbf" stroke="black" points="0,-22.5 0,-41.5 137,-41.5 137,-22.5 0,-22.5"/>
<text text-anchor="middle" x="68.5" y="-29.5" font-family="Helvetica,sans-Serif" font-size="10.00">mn::MFixedPoint::fixrsqrt16</text>
</g>
<!-- Node45 -->
<g id="node2" class="node"><title>Node45</title>
<g id="a_node2"><a xlink:href="namespacemn_1_1MFixedPoint.html#ab9447d89d1eaa05037d45ea17e228aae" target="_top" xlink:title="Converts from double to a raw fixed&#45;point number. ">
<polygon fill="white" stroke="black" points="173,-39 173,-69 312,-69 312,-39 173,-39"/>
<text text-anchor="start" x="181" y="-57" font-family="Helvetica,sans-Serif" font-size="10.00">mn::MFixedPoint::DoubleTo</text>
<text text-anchor="middle" x="242.5" y="-46" font-family="Helvetica,sans-Serif" font-size="10.00">RawFix32</text>
</a>
</g>
</g>
<!-- Node44&#45;&gt;Node45 -->
<g id="edge1" class="edge"><title>Node44&#45;&gt;Node45</title>
<path fill="none" stroke="midnightblue" d="M147.67,-41.9985C156.084,-43.0747 164.598,-44.1637 172.888,-45.224"/>
<polygon fill="midnightblue" stroke="midnightblue" points="147.842,-38.4921 137.479,-40.695 146.954,-45.4355 147.842,-38.4921"/>
</g>
<!-- Node46 -->
<g id="node3" class="node"><title>Node46</title>
<g id="a_node3"><a xlink:href="namespacemn_1_1MFixedPoint.html#a0af48d61efa0fa7b024d71b2d11a487f" target="_top" xlink:title="mn::MFixedPoint::rsqrt">
<polygon fill="white" stroke="black" points="184.5,-0.5 184.5,-19.5 300.5,-19.5 300.5,-0.5 184.5,-0.5"/>
<text text-anchor="middle" x="242.5" y="-7.5" font-family="Helvetica,sans-Serif" font-size="10.00">mn::MFixedPoint::rsqrt</text>
</a>
</g>
</g>
<!-- Node44&#45;&gt;Node46 -->
<g id="edge2" class="edge"><title>Node44&#45;&gt;Node46</title>
<path fill="none" stroke="midnightblue" d="M147.742,-21.9924C160.045,-20.4186 172.563,-18.8176 184.275,-17.3195"/>
<polygon fill="midnightblue" stroke="midnightblue" points="146.954,-18.5645 137.479,-23.305 147.842,-25.5079 146.954,-18.5645"/>
</g>
</g>
</svg>
