<?xml version="1.0" encoding="UTF-8" standalone="no"?>
<!DOCTYPE svg PUBLIC "-//W3C//DTD SVG 1.1//EN"
 "http://www.w3.org/Graphics/SVG/1.1/DTD/svg11.dtd">
<!-- Generated by graphviz version 2.38.0 (20140413.2041)
 -->
<!-- Title: mn::MFixedPoint::rsqrt Pages: 1 -->
<svg width="453pt" height="39pt"
 viewBox="0.00 0.00 453.00 39.00" xmlns="http://www.w3.org/2000/svg" xmlns:xlink="http://www.w3.org/1999/xlink">
<g id="graph0" class="graph" transform="scale(1 1) rotate(0) translate(4 35)">
<title>mn::MFixedPoint::rsqrt</title>
<polygon fill="white" stroke="none" points="-4,4 -4,-35 449,-35 449,4 -4,4"/>
<!-- Node83 -->
<g id="node1" class="node"><title>Node83</title>
<polygon fill="#bfbfbf" stroke="black" points="0,-6 0,-25 116,-25 116,-6 0,-6"/>
<text text-anchor="middle" x="58" y="-13" font-family="Helvetica,sans-Serif" font-size="10.00">mn::MFixedPoint::rsqrt</text>
</g>
<!-- Node84 -->
<g id="node2" class="node"><title>Node84</title>
<g id="a_node2"><a xlink:href="namespacemn_1_1MFixedPoint.html#a5f8f94c6e7eca6ba8233ac7f0da880eb" target="_top" xlink:title="mn::MFixedPoint::fixrsqrt16">
<polygon fill="white" stroke="black" points="152,-6 152,-25 289,-25 289,-6 152,-6"/>
<text text-anchor="middle" x="220.5" y="-13" font-family="Helvetica,sans-Serif" font-size="10.00">mn::MFixedPoint::fixrsqrt16</text>
</a>
</g>
</g>
<!-- Node83&#45;&gt;Node84 -->
<g id="edge1" class="edge"><title>Node83&#45;&gt;Node84</title>
<path fill="none" stroke="midnightblue" d="M116.038,-15.5C124.392,-15.5 133.114,-15.5 141.795,-15.5"/>
<polygon fill="midnightblue" stroke="midnightblue" points="141.944,-19.0001 151.944,-15.5 141.944,-12.0001 141.944,-19.0001"/>
</g>
<!-- Node85 -->
<g id="node3" class="node"><title>Node85</title>
<g id="a_node3"><a xlink:href="namespacemn_1_1MFixedPoint_1_1detail.html#a23c916cea5a4b151e69bff7e828610f2" target="_top" xlink:title="mn::MFixedPoint::detail\l::CountLeadingZeros">
<polygon fill="white" stroke="black" points="325,-0.5 325,-30.5 445,-30.5 445,-0.5 325,-0.5"/>
<text text-anchor="start" x="333" y="-18.5" font-family="Helvetica,sans-Serif" font-size="10.00">mn::MFixedPoint::detail</text>
<text text-anchor="middle" x="385" y="-7.5" font-family="Helvetica,sans-Serif" font-size="10.00">::CountLeadingZeros</text>
</a>
</g>
</g>
<!-- Node84&#45;&gt;Node85 -->
<g id="edge2" class="edge"><title>Node84&#45;&gt;Node85</title>
<path fill="none" stroke="midnightblue" d="M289.003,-15.5C297.496,-15.5 306.196,-15.5 314.716,-15.5"/>
<polygon fill="midnightblue" stroke="midnightblue" points="314.994,-19.0001 324.994,-15.5 314.994,-12.0001 314.994,-19.0001"/>
</g>
</g>
</svg>
