<?xml version="1.0" encoding="UTF-8" standalone="no"?>
<!DOCTYPE svg PUBLIC "-//W3C//DTD SVG 1.1//EN"
 "http://www.w3.org/Graphics/SVG/1.1/DTD/svg11.dtd">
<!-- Generated by graphviz version 2.38.0 (20140413.2041)
 -->
<!-- Title: mn::MFixedPoint::detail::CountLeadingZeros Pages: 1 -->
<svg width="476pt" height="88pt"
 viewBox="0.00 0.00 476.00 88.00" xmlns="http://www.w3.org/2000/svg" xmlns:xlink="http://www.w3.org/1999/xlink">
<g id="graph0" class="graph" transform="scale(1 1) rotate(0) translate(4 84)">
<title>mn::MFixedPoint::detail::CountLeadingZeros</title>
<polygon fill="white" stroke="none" points="-4,4 -4,-84 472,-84 472,4 -4,4"/>
<!-- Node1 -->
<g id="node1" class="node"><title>Node1</title>
<polygon fill="#bfbfbf" stroke="black" points="0,-36 0,-66 120,-66 120,-36 0,-36"/>
<text text-anchor="start" x="8" y="-54" font-family="Helvetica,sans-Serif" font-size="10.00">mn::MFixedPoint::detail</text>
<text text-anchor="middle" x="60" y="-43" font-family="Helvetica,sans-Serif" font-size="10.00">::CountLeadingZeros</text>
</g>
<!-- Node2 -->
<g id="node2" class="node"><title>Node2</title>
<g id="a_node2"><a xlink:href="namespacemn_1_1MFixedPoint.html#ace853bfeeb42f244da813d2f43746db7" target="_top" xlink:title="mn::MFixedPoint::fixinv">
<polygon fill="white" stroke="black" points="164.5,-60.5 164.5,-79.5 284.5,-79.5 284.5,-60.5 164.5,-60.5"/>
<text text-anchor="middle" x="224.5" y="-67.5" font-family="Helvetica,sans-Serif" font-size="10.00">mn::MFixedPoint::fixinv</text>
</a>
</g>
</g>
<!-- Node1&#45;&gt;Node2 -->
<g id="edge1" class="edge"><title>Node1&#45;&gt;Node2</title>
<path fill="none" stroke="midnightblue" d="M130.065,-59.0753C141.498,-60.412 153.26,-61.7873 164.418,-63.092"/>
<polygon fill="midnightblue" stroke="midnightblue" points="130.465,-55.5983 120.126,-57.9132 129.652,-62.5509 130.465,-55.5983"/>
</g>
<!-- Node3 -->
<g id="node3" class="node"><title>Node3</title>
<g id="a_node3"><a xlink:href="namespacemn_1_1MFixedPoint.html#a5f8f94c6e7eca6ba8233ac7f0da880eb" target="_top" xlink:title="mn::MFixedPoint::fixrsqrt16">
<polygon fill="white" stroke="black" points="156,-22.5 156,-41.5 293,-41.5 293,-22.5 156,-22.5"/>
<text text-anchor="middle" x="224.5" y="-29.5" font-family="Helvetica,sans-Serif" font-size="10.00">mn::MFixedPoint::fixrsqrt16</text>
</a>
</g>
</g>
<!-- Node1&#45;&gt;Node3 -->
<g id="edge2" class="edge"><title>Node1&#45;&gt;Node3</title>
<path fill="none" stroke="midnightblue" d="M130.337,-42.8929C138.801,-41.9033 147.441,-40.893 155.88,-39.9064"/>
<polygon fill="midnightblue" stroke="midnightblue" points="129.652,-39.4491 120.126,-44.0868 130.465,-46.4017 129.652,-39.4491"/>
</g>
<!-- Node4 -->
<g id="node4" class="node"><title>Node4</title>
<g id="a_node4"><a xlink:href="namespacemn_1_1MFixedPoint.html#ab9447d89d1eaa05037d45ea17e228aae" target="_top" xlink:title="Converts from double to a raw fixed&#45;point number. ">
<polygon fill="white" stroke="black" points="329,-39 329,-69 468,-69 468,-39 329,-39"/>
<text text-anchor="start" x="337" y="-57" font-family="Helvetica,sans-Serif" font-size="10.00">mn::MFixedPoint::DoubleTo</text>
<text text-anchor="middle" x="398.5" y="-46" font-family="Helvetica,sans-Serif" font-size="10.00">RawFix32</text>
</a>
</g>
</g>
<!-- Node3&#45;&gt;Node4 -->
<g id="edge3" class="edge"><title>Node3&#45;&gt;Node4</title>
<path fill="none" stroke="midnightblue" d="M303.67,-41.9985C312.084,-43.0747 320.598,-44.1637 328.888,-45.224"/>
<polygon fill="midnightblue" stroke="midnightblue" points="303.842,-38.4921 293.479,-40.695 302.954,-45.4355 303.842,-38.4921"/>
</g>
<!-- Node5 -->
<g id="node5" class="node"><title>Node5</title>
<g id="a_node5"><a xlink:href="namespacemn_1_1MFixedPoint.html#a0af48d61efa0fa7b024d71b2d11a487f" target="_top" xlink:title="mn::MFixedPoint::rsqrt">
<polygon fill="white" stroke="black" points="340.5,-0.5 340.5,-19.5 456.5,-19.5 456.5,-0.5 340.5,-0.5"/>
<text text-anchor="middle" x="398.5" y="-7.5" font-family="Helvetica,sans-Serif" font-size="10.00">mn::MFixedPoint::rsqrt</text>
</a>
</g>
</g>
<!-- Node3&#45;&gt;Node5 -->
<g id="edge4" class="edge"><title>Node3&#45;&gt;Node5</title>
<path fill="none" stroke="midnightblue" d="M303.742,-21.9924C316.045,-20.4186 328.563,-18.8176 340.275,-17.3195"/>
<polygon fill="midnightblue" stroke="midnightblue" points="302.954,-18.5645 293.479,-23.305 303.842,-25.5079 302.954,-18.5645"/>
</g>
</g>
</svg>
