<?xml version="1.0" encoding="UTF-8" standalone="no"?>
<!DOCTYPE svg PUBLIC "-//W3C//DTD SVG 1.1//EN"
 "http://www.w3.org/Graphics/SVG/1.1/DTD/svg11.dtd">
<!-- Generated by graphviz version 2.38.0 (20140413.2041)
 -->
<!-- Title: mn::MFixedPoint::fixinv Pages: 1 -->
<svg width="290pt" height="78pt"
 viewBox="0.00 0.00 290.00 77.50" xmlns="http://www.w3.org/2000/svg" xmlns:xlink="http://www.w3.org/1999/xlink">
<g id="graph0" class="graph" transform="scale(1 1) rotate(0) translate(4 73.5)">
<title>mn::MFixedPoint::fixinv</title>
<polygon fill="white" stroke="none" points="-4,4 -4,-73.5 286,-73.5 286,4 -4,4"/>
<!-- Node31 -->
<g id="node1" class="node"><title>Node31</title>
<polygon fill="#bfbfbf" stroke="black" points="0,-22.5 0,-41.5 120,-41.5 120,-22.5 0,-22.5"/>
<text text-anchor="middle" x="60" y="-29.5" font-family="Helvetica,sans-Serif" font-size="10.00">mn::MFixedPoint::fixinv</text>
</g>
<!-- Node32 -->
<g id="node2" class="node"><title>Node32</title>
<g id="a_node2"><a xlink:href="namespacemn_1_1MFixedPoint_1_1detail.html#a23c916cea5a4b151e69bff7e828610f2" target="_top" xlink:title="mn::MFixedPoint::detail\l::CountLeadingZeros">
<polygon fill="white" stroke="black" points="159,-39 159,-69 279,-69 279,-39 159,-39"/>
<text text-anchor="start" x="167" y="-57" font-family="Helvetica,sans-Serif" font-size="10.00">mn::MFixedPoint::detail</text>
<text text-anchor="middle" x="219" y="-46" font-family="Helvetica,sans-Serif" font-size="10.00">::CountLeadingZeros</text>
</a>
</g>
</g>
<!-- Node31&#45;&gt;Node32 -->
<g id="edge1" class="edge"><title>Node31&#45;&gt;Node32</title>
<path fill="none" stroke="midnightblue" d="M120.355,-40.3173C129.602,-41.613 139.226,-42.9615 148.67,-44.285"/>
<polygon fill="midnightblue" stroke="midnightblue" points="148.433,-47.7858 158.822,-45.7075 149.404,-40.8535 148.433,-47.7858"/>
</g>
<!-- Node33 -->
<g id="node3" class="node"><title>Node33</title>
<g id="a_node3"><a xlink:href="namespacemn_1_1MFixedPoint.html#a49674142efd47e1cea03efeea69e8a61" target="_top" xlink:title="Perform a fixed point multiplication using a 64&#45;bit intermediate result to prevent intermediary overf...">
<polygon fill="white" stroke="black" points="156,-0.5 156,-19.5 282,-19.5 282,-0.5 156,-0.5"/>
<text text-anchor="middle" x="219" y="-7.5" font-family="Helvetica,sans-Serif" font-size="10.00">mn::MFixedPoint::FixMul</text>
</a>
</g>
</g>
<!-- Node31&#45;&gt;Node33 -->
<g id="edge2" class="edge"><title>Node31&#45;&gt;Node33</title>
<path fill="none" stroke="midnightblue" d="M120.355,-23.6827C128.718,-22.5108 137.39,-21.2956 145.959,-20.0949"/>
<polygon fill="midnightblue" stroke="midnightblue" points="146.528,-23.5494 155.946,-18.6955 145.557,-16.6171 146.528,-23.5494"/>
</g>
</g>
</svg>
