<?xml version="1.0" encoding="UTF-8" standalone="no"?>
<!DOCTYPE svg PUBLIC "-//W3C//DTD SVG 1.1//EN"
 "http://www.w3.org/Graphics/SVG/1.1/DTD/svg11.dtd">
<!-- Generated by graphviz version 2.38.0 (20140413.2041)
 -->
<!-- Title: mn::MFixedPoint::DoubleToRawFix32 Pages: 1 -->
<svg width="476pt" height="148pt"
 viewBox="0.00 0.00 476.00 147.50" xmlns="http://www.w3.org/2000/svg" xmlns:xlink="http://www.w3.org/1999/xlink">
<g id="graph0" class="graph" transform="scale(1 1) rotate(0) translate(4 143.5)">
<title>mn::MFixedPoint::DoubleToRawFix32</title>
<polygon fill="white" stroke="none" points="-4,4 -4,-143.5 472,-143.5 472,4 -4,4"/>
<!-- Node8 -->
<g id="node1" class="node"><title>Node8</title>
<polygon fill="#bfbfbf" stroke="black" points="0,-57.5 0,-87.5 139,-87.5 139,-57.5 0,-57.5"/>
<text text-anchor="start" x="8" y="-75.5" font-family="Helvetica,sans-Serif" font-size="10.00">mn::MFixedPoint::DoubleTo</text>
<text text-anchor="middle" x="69.5" y="-64.5" font-family="Helvetica,sans-Serif" font-size="10.00">RawFix32</text>
</g>
<!-- Node9 -->
<g id="node2" class="node"><title>Node9</title>
<g id="a_node2"><a xlink:href="namespacemn_1_1MFixedPoint.html#abe2435ffb4d1d6dac5744bb08d42df25" target="_top" xlink:title="mn::MFixedPoint::fixcos16">
<polygon fill="white" stroke="black" points="176.5,-120 176.5,-139 310.5,-139 310.5,-120 176.5,-120"/>
<text text-anchor="middle" x="243.5" y="-127" font-family="Helvetica,sans-Serif" font-size="10.00">mn::MFixedPoint::fixcos16</text>
</a>
</g>
</g>
<!-- Node8&#45;&gt;Node9 -->
<g id="edge1" class="edge"><title>Node8&#45;&gt;Node9</title>
<path fill="none" stroke="midnightblue" d="M109.958,-87.6343C129.421,-94.8976 153.317,-103.517 175,-110.5 182.011,-112.758 189.478,-115.01 196.794,-117.132"/>
<polygon fill="midnightblue" stroke="midnightblue" points="196.043,-120.558 206.62,-119.935 197.963,-113.826 196.043,-120.558"/>
</g>
<!-- Node10 -->
<g id="node3" class="node"><title>Node10</title>
<g id="a_node3"><a xlink:href="namespacemn_1_1MFixedPoint.html#a5f8f94c6e7eca6ba8233ac7f0da880eb" target="_top" xlink:title="mn::MFixedPoint::fixrsqrt16">
<polygon fill="white" stroke="black" points="175,-82 175,-101 312,-101 312,-82 175,-82"/>
<text text-anchor="middle" x="243.5" y="-89" font-family="Helvetica,sans-Serif" font-size="10.00">mn::MFixedPoint::fixrsqrt16</text>
</a>
</g>
</g>
<!-- Node8&#45;&gt;Node10 -->
<g id="edge2" class="edge"><title>Node8&#45;&gt;Node10</title>
<path fill="none" stroke="midnightblue" d="M139.468,-80.1185C147.773,-81.036 156.3,-81.9779 164.72,-82.908"/>
<polygon fill="midnightblue" stroke="midnightblue" points="164.593,-86.4152 174.916,-84.0344 165.361,-79.4575 164.593,-86.4152"/>
</g>
<!-- Node12 -->
<g id="node5" class="node"><title>Node12</title>
<g id="a_node5"><a xlink:href="namespacemn_1_1MFixedPoint.html#a8e0a611dd25e1fd08fa518c32584832a" target="_top" xlink:title="mn::MFixedPoint::fixsin16">
<polygon fill="white" stroke="black" points="178,-44 178,-63 309,-63 309,-44 178,-44"/>
<text text-anchor="middle" x="243.5" y="-51" font-family="Helvetica,sans-Serif" font-size="10.00">mn::MFixedPoint::fixsin16</text>
</a>
</g>
</g>
<!-- Node8&#45;&gt;Node12 -->
<g id="edge4" class="edge"><title>Node8&#45;&gt;Node12</title>
<path fill="none" stroke="midnightblue" d="M139.468,-64.8815C148.802,-63.8503 158.416,-62.7884 167.844,-61.7469"/>
<polygon fill="midnightblue" stroke="midnightblue" points="168.424,-65.2042 177.979,-60.6273 167.656,-58.2465 168.424,-65.2042"/>
</g>
<!-- Node13 -->
<g id="node6" class="node"><title>Node13</title>
<g id="a_node6"><a xlink:href="namespacemn_1_1MFixedPoint.html#a67dbcc8f8829616f0928b35320c51d04" target="_top" xlink:title="Calculates squareroot. ">
<polygon fill="white" stroke="black" points="176.5,-6 176.5,-25 310.5,-25 310.5,-6 176.5,-6"/>
<text text-anchor="middle" x="243.5" y="-13" font-family="Helvetica,sans-Serif" font-size="10.00">mn::MFixedPoint::fixsqrt16</text>
</a>
</g>
</g>
<!-- Node8&#45;&gt;Node13 -->
<g id="edge5" class="edge"><title>Node8&#45;&gt;Node13</title>
<path fill="none" stroke="midnightblue" d="M109.958,-57.3657C129.421,-50.1024 153.317,-41.4833 175,-34.5 182.011,-32.2421 189.478,-29.9902 196.794,-27.8676"/>
<polygon fill="midnightblue" stroke="midnightblue" points="197.963,-31.1737 206.62,-25.0649 196.043,-24.4422 197.963,-31.1737"/>
</g>
<!-- Node11 -->
<g id="node4" class="node"><title>Node11</title>
<g id="a_node4"><a xlink:href="namespacemn_1_1MFixedPoint_1_1detail.html#a23c916cea5a4b151e69bff7e828610f2" target="_top" xlink:title="mn::MFixedPoint::detail\l::CountLeadingZeros">
<polygon fill="white" stroke="black" points="348,-76.5 348,-106.5 468,-106.5 468,-76.5 348,-76.5"/>
<text text-anchor="start" x="356" y="-94.5" font-family="Helvetica,sans-Serif" font-size="10.00">mn::MFixedPoint::detail</text>
<text text-anchor="middle" x="408" y="-83.5" font-family="Helvetica,sans-Serif" font-size="10.00">::CountLeadingZeros</text>
</a>
</g>
</g>
<!-- Node10&#45;&gt;Node11 -->
<g id="edge3" class="edge"><title>Node10&#45;&gt;Node11</title>
<path fill="none" stroke="midnightblue" d="M312.003,-91.5C320.496,-91.5 329.196,-91.5 337.716,-91.5"/>
<polygon fill="midnightblue" stroke="midnightblue" points="337.994,-95.0001 347.994,-91.5 337.994,-88.0001 337.994,-95.0001"/>
</g>
<!-- Node14 -->
<g id="node7" class="node"><title>Node14</title>
<g id="a_node7"><a xlink:href="namespacemn_1_1MFixedPoint.html#ae4a8dc561a9ea6b45837015139604367" target="_top" xlink:title="mn::MFixedPoint::fast\l_div16">
<polygon fill="white" stroke="black" points="351.5,-0.5 351.5,-30.5 464.5,-30.5 464.5,-0.5 351.5,-0.5"/>
<text text-anchor="start" x="359.5" y="-18.5" font-family="Helvetica,sans-Serif" font-size="10.00">mn::MFixedPoint::fast</text>
<text text-anchor="middle" x="408" y="-7.5" font-family="Helvetica,sans-Serif" font-size="10.00">_div16</text>
</a>
</g>
</g>
<!-- Node13&#45;&gt;Node14 -->
<g id="edge6" class="edge"><title>Node13&#45;&gt;Node14</title>
<path fill="none" stroke="midnightblue" d="M310.595,-15.5C320.744,-15.5 331.22,-15.5 341.359,-15.5"/>
<polygon fill="midnightblue" stroke="midnightblue" points="341.361,-19.0001 351.361,-15.5 341.361,-12.0001 341.361,-19.0001"/>
</g>
</g>
</svg>
