<?xml version="1.0" encoding="UTF-8" standalone="no"?>
<!DOCTYPE svg PUBLIC "-//W3C//DTD SVG 1.1//EN"
 "http://www.w3.org/Graphics/SVG/1.1/DTD/svg11.dtd">
<!-- Generated by graphviz version 2.38.0 (20140413.2041)
 -->
<!-- Title: mn::MFixedPoint::fixsin16 Pages: 1 -->
<svg width="314pt" height="78pt"
 viewBox="0.00 0.00 314.00 77.50" xmlns="http://www.w3.org/2000/svg" xmlns:xlink="http://www.w3.org/1999/xlink">
<g id="graph0" class="graph" transform="scale(1 1) rotate(0) translate(4 73.5)">
<title>mn::MFixedPoint::fixsin16</title>
<polygon fill="white" stroke="none" points="-4,4 -4,-73.5 310,-73.5 310,4 -4,4"/>
<!-- Node48 -->
<g id="node1" class="node"><title>Node48</title>
<polygon fill="#bfbfbf" stroke="black" points="0,-22.5 0,-41.5 131,-41.5 131,-22.5 0,-22.5"/>
<text text-anchor="middle" x="65.5" y="-29.5" font-family="Helvetica,sans-Serif" font-size="10.00">mn::MFixedPoint::fixsin16</text>
</g>
<!-- Node49 -->
<g id="node2" class="node"><title>Node49</title>
<g id="a_node2"><a xlink:href="namespacemn_1_1MFixedPoint.html#ab9447d89d1eaa05037d45ea17e228aae" target="_top" xlink:title="Converts from double to a raw fixed&#45;point number. ">
<polygon fill="white" stroke="black" points="167,-39 167,-69 306,-69 306,-39 167,-39"/>
<text text-anchor="start" x="175" y="-57" font-family="Helvetica,sans-Serif" font-size="10.00">mn::MFixedPoint::DoubleTo</text>
<text text-anchor="middle" x="236.5" y="-46" font-family="Helvetica,sans-Serif" font-size="10.00">RawFix32</text>
</a>
</g>
</g>
<!-- Node48&#45;&gt;Node49 -->
<g id="edge1" class="edge"><title>Node48&#45;&gt;Node49</title>
<path fill="none" stroke="midnightblue" d="M141.278,-41.7344C149.799,-42.8437 158.455,-43.9704 166.891,-45.0686"/>
<polygon fill="midnightblue" stroke="midnightblue" points="141.725,-38.2631 131.356,-40.4429 140.821,-45.2045 141.725,-38.2631"/>
</g>
<!-- Node50 -->
<g id="node3" class="node"><title>Node50</title>
<g id="a_node3"><a xlink:href="namespacemn_1_1MFixedPoint.html#ad68285858b99c8018f83a0745ea65b0c" target="_top" xlink:title="mn::MFixedPoint::sin">
<polygon fill="white" stroke="black" points="181.5,-0.5 181.5,-19.5 291.5,-19.5 291.5,-0.5 181.5,-0.5"/>
<text text-anchor="middle" x="236.5" y="-7.5" font-family="Helvetica,sans-Serif" font-size="10.00">mn::MFixedPoint::sin</text>
</a>
</g>
</g>
<!-- Node48&#45;&gt;Node50 -->
<g id="edge2" class="edge"><title>Node48&#45;&gt;Node50</title>
<path fill="none" stroke="midnightblue" d="M141.504,-22.2361C154.886,-20.4941 168.59,-18.7102 181.25,-17.0621"/>
<polygon fill="midnightblue" stroke="midnightblue" points="140.821,-18.7955 131.356,-23.5571 141.725,-25.7369 140.821,-18.7955"/>
</g>
</g>
</svg>
