<?xml version="1.0" encoding="UTF-8" standalone="no"?>
<!DOCTYPE svg PUBLIC "-//W3C//DTD SVG 1.1//EN"
 "http://www.w3.org/Graphics/SVG/1.1/DTD/svg11.dtd">
<!-- Generated by graphviz version 2.38.0 (20140413.2041)
 -->
<!-- Title: mn::MFixedPoint::fixcos16 Pages: 1 -->
<svg width="317pt" height="78pt"
 viewBox="0.00 0.00 317.00 77.50" xmlns="http://www.w3.org/2000/svg" xmlns:xlink="http://www.w3.org/1999/xlink">
<g id="graph0" class="graph" transform="scale(1 1) rotate(0) translate(4 73.5)">
<title>mn::MFixedPoint::fixcos16</title>
<polygon fill="white" stroke="none" points="-4,4 -4,-73.5 313,-73.5 313,4 -4,4"/>
<!-- Node24 -->
<g id="node1" class="node"><title>Node24</title>
<polygon fill="#bfbfbf" stroke="black" points="0,-28 0,-47 134,-47 134,-28 0,-28"/>
<text text-anchor="middle" x="67" y="-35" font-family="Helvetica,sans-Serif" font-size="10.00">mn::MFixedPoint::fixcos16</text>
</g>
<!-- Node25 -->
<g id="node2" class="node"><title>Node25</title>
<g id="a_node2"><a xlink:href="namespacemn_1_1MFixedPoint.html#ad63a51578943b11d73d329df904397d3" target="_top" xlink:title="mn::MFixedPoint::cos">
<polygon fill="white" stroke="black" points="183,-50 183,-69 296,-69 296,-50 183,-50"/>
<text text-anchor="middle" x="239.5" y="-57" font-family="Helvetica,sans-Serif" font-size="10.00">mn::MFixedPoint::cos</text>
</a>
</g>
</g>
<!-- Node24&#45;&gt;Node25 -->
<g id="edge1" class="edge"><title>Node24&#45;&gt;Node25</title>
<path fill="none" stroke="midnightblue" d="M144.628,-47.3874C157.469,-49.0444 170.575,-50.7355 182.762,-52.308"/>
<polygon fill="midnightblue" stroke="midnightblue" points="144.774,-43.8773 134.408,-46.0688 143.878,-50.8198 144.774,-43.8773"/>
</g>
<!-- Node26 -->
<g id="node3" class="node"><title>Node26</title>
<g id="a_node3"><a xlink:href="namespacemn_1_1MFixedPoint.html#ab9447d89d1eaa05037d45ea17e228aae" target="_top" xlink:title="Converts from double to a raw fixed&#45;point number. ">
<polygon fill="white" stroke="black" points="170,-0.5 170,-30.5 309,-30.5 309,-0.5 170,-0.5"/>
<text text-anchor="start" x="178" y="-18.5" font-family="Helvetica,sans-Serif" font-size="10.00">mn::MFixedPoint::DoubleTo</text>
<text text-anchor="middle" x="239.5" y="-7.5" font-family="Helvetica,sans-Serif" font-size="10.00">RawFix32</text>
</a>
</g>
</g>
<!-- Node24&#45;&gt;Node26 -->
<g id="edge2" class="edge"><title>Node24&#45;&gt;Node26</title>
<path fill="none" stroke="midnightblue" d="M144.563,-27.6209C152.953,-26.5384 161.456,-25.4412 169.742,-24.372"/>
<polygon fill="midnightblue" stroke="midnightblue" points="143.878,-24.1802 134.408,-28.9312 144.774,-31.1227 143.878,-24.1802"/>
</g>
</g>
</svg>
