<?xml version="1.0" encoding="UTF-8" standalone="no"?>
<!DOCTYPE svg PUBLIC "-//W3C//DTD SVG 1.1//EN"
 "http://www.w3.org/Graphics/SVG/1.1/DTD/svg11.dtd">
<!-- Generated by graphviz version 2.38.0 (20140413.2041)
 -->
<!-- Title: mn::MFixedPoint::fixsqrt16 Pages: 1 -->
<svg width="317pt" height="78pt"
 viewBox="0.00 0.00 317.00 77.50" xmlns="http://www.w3.org/2000/svg" xmlns:xlink="http://www.w3.org/1999/xlink">
<g id="graph0" class="graph" transform="scale(1 1) rotate(0) translate(4 73.5)">
<title>mn::MFixedPoint::fixsqrt16</title>
<polygon fill="white" stroke="none" points="-4,4 -4,-73.5 313,-73.5 313,4 -4,4"/>
<!-- Node53 -->
<g id="node1" class="node"><title>Node53</title>
<polygon fill="#bfbfbf" stroke="black" points="0,-22.5 0,-41.5 134,-41.5 134,-22.5 0,-22.5"/>
<text text-anchor="middle" x="67" y="-29.5" font-family="Helvetica,sans-Serif" font-size="10.00">mn::MFixedPoint::fixsqrt16</text>
</g>
<!-- Node54 -->
<g id="node2" class="node"><title>Node54</title>
<g id="a_node2"><a xlink:href="namespacemn_1_1MFixedPoint.html#ab9447d89d1eaa05037d45ea17e228aae" target="_top" xlink:title="Converts from double to a raw fixed&#45;point number. ">
<polygon fill="white" stroke="black" points="170,-39 170,-69 309,-69 309,-39 170,-39"/>
<text text-anchor="start" x="178" y="-57" font-family="Helvetica,sans-Serif" font-size="10.00">mn::MFixedPoint::DoubleTo</text>
<text text-anchor="middle" x="239.5" y="-46" font-family="Helvetica,sans-Serif" font-size="10.00">RawFix32</text>
</a>
</g>
</g>
<!-- Node53&#45;&gt;Node54 -->
<g id="edge1" class="edge"><title>Node53&#45;&gt;Node54</title>
<path fill="none" stroke="midnightblue" d="M144.563,-41.8791C152.953,-42.9616 161.456,-44.0588 169.742,-45.128"/>
<polygon fill="midnightblue" stroke="midnightblue" points="144.774,-38.3773 134.408,-40.5688 143.878,-45.3198 144.774,-38.3773"/>
</g>
<!-- Node55 -->
<g id="node3" class="node"><title>Node55</title>
<g id="a_node3"><a xlink:href="namespacemn_1_1MFixedPoint.html#a3acec45599038730e03e2b4167300dad" target="_top" xlink:title="mn::MFixedPoint::sqrt">
<polygon fill="white" stroke="black" points="183,-0.5 183,-19.5 296,-19.5 296,-0.5 183,-0.5"/>
<text text-anchor="middle" x="239.5" y="-7.5" font-family="Helvetica,sans-Serif" font-size="10.00">mn::MFixedPoint::sqrt</text>
</a>
</g>
</g>
<!-- Node53&#45;&gt;Node55 -->
<g id="edge2" class="edge"><title>Node53&#45;&gt;Node55</title>
<path fill="none" stroke="midnightblue" d="M144.628,-22.1126C157.469,-20.4556 170.575,-18.7645 182.762,-17.192"/>
<polygon fill="midnightblue" stroke="midnightblue" points="143.878,-18.6802 134.408,-23.4312 144.774,-25.6227 143.878,-18.6802"/>
</g>
</g>
</svg>
