<?xml version="1.0" encoding="UTF-8" standalone="no"?>
<!DOCTYPE svg PUBLIC "-//W3C//DTD SVG 1.1//EN"
 "http://www.w3.org/Graphics/SVG/1.1/DTD/svg11.dtd">
<!-- Generated by graphviz version 2.38.0 (20140413.2041)
 -->
<!-- Title: mn::MFixedPoint::operator/ Pages: 1 -->
<svg width="295pt" height="180pt"
 viewBox="0.00 0.00 295.00 180.00" xmlns="http://www.w3.org/2000/svg" xmlns:xlink="http://www.w3.org/1999/xlink">
<g id="graph0" class="graph" transform="scale(1 1) rotate(0) translate(4 176)">
<title>mn::MFixedPoint::operator/</title>
<polygon fill="white" stroke="none" points="-4,4 -4,-176 291,-176 291,4 -4,4"/>
<!-- Node73 -->
<g id="node1" class="node"><title>Node73</title>
<polygon fill="#bfbfbf" stroke="black" points="0,-76.5 0,-95.5 135,-95.5 135,-76.5 0,-76.5"/>
<text text-anchor="middle" x="67.5" y="-83.5" font-family="Helvetica,sans-Serif" font-size="10.00">mn::MFixedPoint::operator/</text>
</g>
<!-- Node74 -->
<g id="node2" class="node"><title>Node74</title>
<g id="a_node2"><a xlink:href="namespacemn_1_1MFixedPoint.html#add093362bc33ef75dc54a91a2170be5d" target="_top" xlink:title="mn::MFixedPoint::cos">
<polygon fill="white" stroke="black" points="172.5,-152.5 172.5,-171.5 285.5,-171.5 285.5,-152.5 172.5,-152.5"/>
<text text-anchor="middle" x="229" y="-159.5" font-family="Helvetica,sans-Serif" font-size="10.00">mn::MFixedPoint::cos</text>
</a>
</g>
</g>
<!-- Node73&#45;&gt;Node74 -->
<g id="edge1" class="edge"><title>Node73&#45;&gt;Node74</title>
<path fill="none" stroke="midnightblue" d="M83.6699,-95.6148C103.284,-107.767 138.759,-128.809 171,-143 175.829,-145.125 180.975,-147.153 186.123,-149.037"/>
<polygon fill="midnightblue" stroke="midnightblue" points="185.352,-152.475 195.946,-152.475 187.664,-145.868 185.352,-152.475"/>
</g>
<!-- Node75 -->
<g id="node3" class="node"><title>Node75</title>
<g id="a_node3"><a xlink:href="namespacemn_1_1MFixedPoint.html#ad33466d848879bec156b9a50b1265d66" target="_top" xlink:title="mn::MFixedPoint::inv">
<polygon fill="white" stroke="black" points="174,-114.5 174,-133.5 284,-133.5 284,-114.5 174,-114.5"/>
<text text-anchor="middle" x="229" y="-121.5" font-family="Helvetica,sans-Serif" font-size="10.00">mn::MFixedPoint::inv</text>
</a>
</g>
</g>
<!-- Node73&#45;&gt;Node75 -->
<g id="edge2" class="edge"><title>Node73&#45;&gt;Node75</title>
<path fill="none" stroke="midnightblue" d="M108.749,-95.589C129.796,-100.604 155.755,-106.788 178.073,-112.105"/>
<polygon fill="midnightblue" stroke="midnightblue" points="177.502,-115.567 188.041,-114.48 179.124,-108.758 177.502,-115.567"/>
</g>
<!-- Node76 -->
<g id="node4" class="node"><title>Node76</title>
<g id="a_node4"><a xlink:href="namespacemn_1_1MFixedPoint.html#a6177ed7234c6e6d213c9a92af254b483" target="_top" xlink:title="mn::MFixedPoint::rsqrt">
<polygon fill="white" stroke="black" points="171,-76.5 171,-95.5 287,-95.5 287,-76.5 171,-76.5"/>
<text text-anchor="middle" x="229" y="-83.5" font-family="Helvetica,sans-Serif" font-size="10.00">mn::MFixedPoint::rsqrt</text>
</a>
</g>
</g>
<!-- Node73&#45;&gt;Node76 -->
<g id="edge3" class="edge"><title>Node73&#45;&gt;Node76</title>
<path fill="none" stroke="midnightblue" d="M135.218,-86C143.593,-86 152.166,-86 160.552,-86"/>
<polygon fill="midnightblue" stroke="midnightblue" points="160.663,-89.5001 170.663,-86 160.663,-82.5001 160.663,-89.5001"/>
</g>
<!-- Node77 -->
<g id="node5" class="node"><title>Node77</title>
<g id="a_node5"><a xlink:href="namespacemn_1_1MFixedPoint.html#a3e7e5abbc1fb4d2aecdb5cd98b58b66f" target="_top" xlink:title="mn::MFixedPoint::sin">
<polygon fill="white" stroke="black" points="174,-38.5 174,-57.5 284,-57.5 284,-38.5 174,-38.5"/>
<text text-anchor="middle" x="229" y="-45.5" font-family="Helvetica,sans-Serif" font-size="10.00">mn::MFixedPoint::sin</text>
</a>
</g>
</g>
<!-- Node73&#45;&gt;Node77 -->
<g id="edge4" class="edge"><title>Node73&#45;&gt;Node77</title>
<path fill="none" stroke="midnightblue" d="M108.749,-76.411C129.796,-71.3965 155.755,-65.2119 178.073,-59.8947"/>
<polygon fill="midnightblue" stroke="midnightblue" points="179.124,-63.2424 188.041,-57.5201 177.502,-56.433 179.124,-63.2424"/>
</g>
<!-- Node78 -->
<g id="node6" class="node"><title>Node78</title>
<g id="a_node6"><a xlink:href="namespacemn_1_1MFixedPoint.html#a05d7ba6997d3295966a3f272a27e45ef" target="_top" xlink:title="mn::MFixedPoint::sqrt">
<polygon fill="white" stroke="black" points="172.5,-0.5 172.5,-19.5 285.5,-19.5 285.5,-0.5 172.5,-0.5"/>
<text text-anchor="middle" x="229" y="-7.5" font-family="Helvetica,sans-Serif" font-size="10.00">mn::MFixedPoint::sqrt</text>
</a>
</g>
</g>
<!-- Node73&#45;&gt;Node78 -->
<g id="edge5" class="edge"><title>Node73&#45;&gt;Node78</title>
<path fill="none" stroke="midnightblue" d="M83.6699,-76.3852C103.284,-64.2326 138.759,-43.1907 171,-29 175.829,-26.8746 180.975,-24.8474 186.123,-22.9625"/>
<polygon fill="midnightblue" stroke="midnightblue" points="187.664,-26.1317 195.946,-19.5249 185.352,-19.5246 187.664,-26.1317"/>
</g>
</g>
</svg>
