<?xml version="1.0" encoding="UTF-8" standalone="no"?>
<!DOCTYPE svg PUBLIC "-//W3C//DTD SVG 1.1//EN"
 "http://www.w3.org/Graphics/SVG/1.1/DTD/svg11.dtd">
<!-- Generated by graphviz version 2.38.0 (20140413.2041)
 -->
<!-- Title: mn::MFixedPoint::sqrt Pages: 1 -->
<svg width="440pt" height="39pt"
 viewBox="0.00 0.00 440.00 39.00" xmlns="http://www.w3.org/2000/svg" xmlns:xlink="http://www.w3.org/1999/xlink">
<g id="graph0" class="graph" transform="scale(1 1) rotate(0) translate(4 35)">
<title>mn::MFixedPoint::sqrt</title>
<polygon fill="white" stroke="none" points="-4,4 -4,-35 436,-35 436,4 -4,4"/>
<!-- Node96 -->
<g id="node1" class="node"><title>Node96</title>
<polygon fill="#bfbfbf" stroke="black" points="0,-6 0,-25 113,-25 113,-6 0,-6"/>
<text text-anchor="middle" x="56.5" y="-13" font-family="Helvetica,sans-Serif" font-size="10.00">mn::MFixedPoint::sqrt</text>
</g>
<!-- Node97 -->
<g id="node2" class="node"><title>Node97</title>
<g id="a_node2"><a xlink:href="namespacemn_1_1MFixedPoint.html#a67dbcc8f8829616f0928b35320c51d04" target="_top" xlink:title="Calculates squareroot. ">
<polygon fill="white" stroke="black" points="149,-6 149,-25 283,-25 283,-6 149,-6"/>
<text text-anchor="middle" x="216" y="-13" font-family="Helvetica,sans-Serif" font-size="10.00">mn::MFixedPoint::fixsqrt16</text>
</a>
</g>
</g>
<!-- Node96&#45;&gt;Node97 -->
<g id="edge1" class="edge"><title>Node96&#45;&gt;Node97</title>
<path fill="none" stroke="midnightblue" d="M113.029,-15.5C121.368,-15.5 130.088,-15.5 138.768,-15.5"/>
<polygon fill="midnightblue" stroke="midnightblue" points="138.913,-19.0001 148.913,-15.5 138.913,-12.0001 138.913,-19.0001"/>
</g>
<!-- Node98 -->
<g id="node3" class="node"><title>Node98</title>
<g id="a_node3"><a xlink:href="namespacemn_1_1MFixedPoint.html#ae4a8dc561a9ea6b45837015139604367" target="_top" xlink:title="mn::MFixedPoint::fast\l_div16">
<polygon fill="white" stroke="black" points="319,-0.5 319,-30.5 432,-30.5 432,-0.5 319,-0.5"/>
<text text-anchor="start" x="327" y="-18.5" font-family="Helvetica,sans-Serif" font-size="10.00">mn::MFixedPoint::fast</text>
<text text-anchor="middle" x="375.5" y="-7.5" font-family="Helvetica,sans-Serif" font-size="10.00">_div16</text>
</a>
</g>
</g>
<!-- Node97&#45;&gt;Node98 -->
<g id="edge2" class="edge"><title>Node97&#45;&gt;Node98</title>
<path fill="none" stroke="midnightblue" d="M283.338,-15.5C291.705,-15.5 300.265,-15.5 308.625,-15.5"/>
<polygon fill="midnightblue" stroke="midnightblue" points="308.698,-19.0001 318.698,-15.5 308.698,-12.0001 308.698,-19.0001"/>
</g>
</g>
</svg>
