<?xml version="1.0" encoding="UTF-8" standalone="no"?>
<!DOCTYPE svg PUBLIC "-//W3C//DTD SVG 1.1//EN"
 "http://www.w3.org/Graphics/SVG/1.1/DTD/svg11.dtd">
<!-- Generated by graphviz version 2.38.0 (20140413.2041)
 -->
<!-- Title: include/MFixedPoint/Port.hpp Pages: 1 -->
<svg width="140pt" height="95pt"
 viewBox="0.00 0.00 139.50 95.00" xmlns="http://www.w3.org/2000/svg" xmlns:xlink="http://www.w3.org/1999/xlink">
<g id="graph0" class="graph" transform="scale(1 1) rotate(0) translate(4 91)">
<title>include/MFixedPoint/Port.hpp</title>
<polygon fill="white" stroke="none" points="-4,4 -4,-91 135.5,-91 135.5,4 -4,4"/>
<!-- Node0 -->
<g id="node1" class="node"><title>Node0</title>
<polygon fill="#bfbfbf" stroke="black" points="16.5,-56.5 16.5,-86.5 121.5,-86.5 121.5,-56.5 16.5,-56.5"/>
<text text-anchor="start" x="24.5" y="-74.5" font-family="Helvetica,sans-Serif" font-size="10.00">include/MFixedPoint</text>
<text text-anchor="middle" x="69" y="-63.5" font-family="Helvetica,sans-Serif" font-size="10.00">/Port.hpp</text>
</g>
<!-- Node1 -->
<g id="node2" class="node"><title>Node1</title>
<g id="a_node2"><a xlink:href="Config_8hpp.html" target="_top" xlink:title="Port specific functions. ">
<polygon fill="white" stroke="black" points="0,-0.5 0,-19.5 64,-19.5 64,-0.5 0,-0.5"/>
<text text-anchor="middle" x="32" y="-7.5" font-family="Helvetica,sans-Serif" font-size="10.00">Config.hpp</text>
</a>
</g>
</g>
<!-- Node0&#45;&gt;Node1 -->
<g id="edge1" class="edge"><title>Node0&#45;&gt;Node1</title>
<path fill="none" stroke="midnightblue" d="M60.2315,-56.3993C55.0213,-48.0207 48.3714,-37.3269 42.8344,-28.4229"/>
<polygon fill="midnightblue" stroke="midnightblue" points="45.6368,-26.3015 37.3838,-19.6578 39.6924,-29.9981 45.6368,-26.3015"/>
</g>
<!-- Node2 -->
<g id="node3" class="node"><title>Node2</title>
<polygon fill="white" stroke="#bfbfbf" points="82.5,-0.5 82.5,-19.5 131.5,-19.5 131.5,-0.5 82.5,-0.5"/>
<text text-anchor="middle" x="107" y="-7.5" font-family="Helvetica,sans-Serif" font-size="10.00">stdint.h</text>
</g>
<!-- Node0&#45;&gt;Node2 -->
<g id="edge2" class="edge"><title>Node0&#45;&gt;Node2</title>
<path fill="none" stroke="midnightblue" d="M78.0055,-56.3993C83.4135,-47.9315 90.3317,-37.0991 96.0539,-28.1393"/>
<polygon fill="midnightblue" stroke="midnightblue" points="99.0379,-29.9695 101.471,-19.6578 93.1384,-26.2018 99.0379,-29.9695"/>
</g>
</g>
</svg>
