<?xml version="1.0" encoding="UTF-8" standalone="no"?>
<!DOCTYPE svg PUBLIC "-//W3C//DTD SVG 1.1//EN"
 "http://www.w3.org/Graphics/SVG/1.1/DTD/svg11.dtd">
<!-- Generated by graphviz version 2.38.0 (20140413.2041)
 -->
<!-- Title: include/MFixedPoint/Port.hpp Pages: 1 -->
<svg width="448pt" height="162pt"
 viewBox="0.00 0.00 447.50 162.00" xmlns="http://www.w3.org/2000/svg" xmlns:xlink="http://www.w3.org/1999/xlink">
<g id="graph0" class="graph" transform="scale(1 1) rotate(0) translate(4 158)">
<title>include/MFixedPoint/Port.hpp</title>
<polygon fill="white" stroke="none" points="-4,4 -4,-158 443.5,-158 443.5,4 -4,4"/>
<!-- Node3 -->
<g id="node1" class="node"><title>Node3</title>
<polygon fill="#bfbfbf" stroke="black" points="149.5,-123.5 149.5,-153.5 254.5,-153.5 254.5,-123.5 149.5,-123.5"/>
<text text-anchor="start" x="157.5" y="-141.5" font-family="Helvetica,sans-Serif" font-size="10.00">include/MFixedPoint</text>
<text text-anchor="middle" x="202" y="-130.5" font-family="Helvetica,sans-Serif" font-size="10.00">/Port.hpp</text>
</g>
<!-- Node4 -->
<g id="node2" class="node"><title>Node4</title>
<g id="a_node2"><a xlink:href="Port_8cpp.html" target="_top" xlink:title="Port specific functions. ">
<polygon fill="white" stroke="black" points="0,-62 0,-81 70,-81 70,-62 0,-62"/>
<text text-anchor="middle" x="35" y="-69" font-family="Helvetica,sans-Serif" font-size="10.00">src/Port.cpp</text>
</a>
</g>
</g>
<!-- Node3&#45;&gt;Node4 -->
<g id="edge1" class="edge"><title>Node3&#45;&gt;Node4</title>
<path fill="none" stroke="midnightblue" d="M156.066,-119.621C123.742,-107.04 81.9298,-90.7661 56.8565,-81.007"/>
<polygon fill="midnightblue" stroke="midnightblue" points="155.175,-123.03 165.763,-123.396 157.714,-116.507 155.175,-123.03"/>
</g>
<!-- Node5 -->
<g id="node3" class="node"><title>Node5</title>
<g id="a_node3"><a xlink:href="Fp32f_8hpp.html" target="_top" xlink:title="Fast 32&#45;bit fixed point library. ">
<polygon fill="white" stroke="black" points="88.5,-56.5 88.5,-86.5 193.5,-86.5 193.5,-56.5 88.5,-56.5"/>
<text text-anchor="start" x="96.5" y="-74.5" font-family="Helvetica,sans-Serif" font-size="10.00">include/MFixedPoint</text>
<text text-anchor="middle" x="141" y="-63.5" font-family="Helvetica,sans-Serif" font-size="10.00">/Fp32f.hpp</text>
</a>
</g>
</g>
<!-- Node3&#45;&gt;Node5 -->
<g id="edge2" class="edge"><title>Node3&#45;&gt;Node5</title>
<path fill="none" stroke="midnightblue" d="M181.846,-116.024C172.757,-106.34 162.279,-95.1739 154.21,-86.5765"/>
<polygon fill="midnightblue" stroke="midnightblue" points="179.369,-118.499 188.764,-123.396 184.473,-113.709 179.369,-118.499"/>
</g>
<!-- Node7 -->
<g id="node5" class="node"><title>Node7</title>
<g id="a_node5"><a xlink:href="Fp32s_8hpp.html" target="_top" xlink:title="A slower, more powerful 32&#45;bit fixed point library. ">
<polygon fill="white" stroke="black" points="211.5,-56.5 211.5,-86.5 316.5,-86.5 316.5,-56.5 211.5,-56.5"/>
<text text-anchor="start" x="219.5" y="-74.5" font-family="Helvetica,sans-Serif" font-size="10.00">include/MFixedPoint</text>
<text text-anchor="middle" x="264" y="-63.5" font-family="Helvetica,sans-Serif" font-size="10.00">/Fp32s.hpp</text>
</a>
</g>
</g>
<!-- Node3&#45;&gt;Node7 -->
<g id="edge4" class="edge"><title>Node3&#45;&gt;Node7</title>
<path fill="none" stroke="midnightblue" d="M222.485,-116.024C231.722,-106.34 242.373,-95.1739 250.573,-86.5765"/>
<polygon fill="midnightblue" stroke="midnightblue" points="219.823,-113.744 215.453,-123.396 224.888,-118.576 219.823,-113.744"/>
</g>
<!-- Node8 -->
<g id="node6" class="node"><title>Node8</title>
<g id="a_node6"><a xlink:href="Fp64s_8hpp.html" target="_top" xlink:title="A slower, more powerful 64&#45;bit fixed point library (than Fp64f). ">
<polygon fill="white" stroke="black" points="334.5,-56.5 334.5,-86.5 439.5,-86.5 439.5,-56.5 334.5,-56.5"/>
<text text-anchor="start" x="342.5" y="-74.5" font-family="Helvetica,sans-Serif" font-size="10.00">include/MFixedPoint</text>
<text text-anchor="middle" x="387" y="-63.5" font-family="Helvetica,sans-Serif" font-size="10.00">/Fp64s.hpp</text>
</a>
</g>
</g>
<!-- Node3&#45;&gt;Node8 -->
<g id="edge5" class="edge"><title>Node3&#45;&gt;Node8</title>
<path fill="none" stroke="midnightblue" d="M251.935,-119.955C281.736,-109.485 319.075,-96.3656 346.936,-86.5765"/>
<polygon fill="midnightblue" stroke="midnightblue" points="250.417,-116.779 242.142,-123.396 252.737,-123.383 250.417,-116.779"/>
</g>
<!-- Node6 -->
<g id="node4" class="node"><title>Node6</title>
<g id="a_node4"><a xlink:href="Fp32f_8cpp.html" target="_top" xlink:title="Fast 32&#45;bit fixed point library. ">
<polygon fill="white" stroke="black" points="102.5,-0.5 102.5,-19.5 179.5,-19.5 179.5,-0.5 102.5,-0.5"/>
<text text-anchor="middle" x="141" y="-7.5" font-family="Helvetica,sans-Serif" font-size="10.00">src/Fp32f.cpp</text>
</a>
</g>
</g>
<!-- Node5&#45;&gt;Node6 -->
<g id="edge3" class="edge"><title>Node5&#45;&gt;Node6</title>
<path fill="none" stroke="midnightblue" d="M141,-46.2892C141,-36.857 141,-26.6548 141,-19.6578"/>
<polygon fill="midnightblue" stroke="midnightblue" points="137.5,-46.3993 141,-56.3993 144.5,-46.3994 137.5,-46.3993"/>
</g>
</g>
</svg>
